<svg width="1001" height="227" viewBox="0 0 1001 227" fill="none" xmlns="http://www.w3.org/2000/svg">
<path d="M420.69 6.63667C457.832 12.0783 495.987 48.8412 495.987 100.031C495.987 151.22 458.339 199.879 406.137 205.89C432.712 211.838 503.517 199.436 510.541 113.002C515.539 50.866 466.881 7.14288 416.704 4.16894C415.691 4.16894 415.691 3.66274 416.704 3.66274C469.918 2.65034 517.564 50.866 517.058 110.471C517.058 131.352 511.047 152.676 497.506 173.05C516.045 153.688 524.588 125.341 524.588 105.472C524.588 42.8933 474.41 0.119338 419.677 0.625539C356.466 2.14414 319.829 53.2704 317.298 95.5382C324.322 80.6053 336.85 69.722 344.886 64.217C345.392 35.4268 365.957 15.4952 388.04 9.54733C431.7 -1.90547 467.83 35.8698 466.311 80.6053C466.311 136.287 408.098 191.906 337.863 166.09C338.369 167.102 370.956 219.241 437.711 185.452C483.396 162.104 500.923 101.992 476.878 54.789C455.808 13.0275 420.184 6.5734 412.654 6.0672C411.642 6.0672 412.148 5.561 412.654 5.561C417.146 5.561 420.69 6.5734 420.69 6.5734V6.63667Z" fill="#C8102E"/>
<path fill-rule="evenodd" clip-rule="evenodd" d="M26.2327 113.948H25.2203C23.7017 109.962 20.7278 107.494 16.172 107.494C11.1732 107.494 7.12363 110.974 7.12363 115.91C7.12363 122.364 12.502 124.452 18.0702 126.603C24.0181 128.881 30.2191 131.286 30.2191 139.258C30.2191 149.699 22.1831 155.647 12.1224 155.647C8.57896 155.647 2.56783 154.128 0.100098 151.66L1.6187 145.206H2.1249C5.16211 149.699 8.13604 152.673 14.1472 152.673C20.1583 152.673 24.2079 147.674 24.2079 142.232C24.2079 135.841 19.0194 133.88 13.5144 131.729C7.44001 129.387 1.1125 126.983 1.1125 118.378C1.1125 108.95 8.64224 104.457 17.1844 104.457C20.7278 104.457 24.7141 105.469 27.7513 107.937L26.2327 113.885V113.948ZM79.9533 105.533L78.9409 106.545H74.4484L56.3517 124.958C55.3393 125.971 53.8207 127.426 52.3653 128.438C51.3529 128.945 50.3405 129.451 50.3405 128.945V106.608H43.8232V156.279H51.3529V130.969C51.3529 130.463 51.8591 130.463 52.3653 130.969L68.4372 149.382C70.462 151.344 71.9806 153.369 73.436 155.836H81.4719V155.33L75.4608 147.864C72.4236 144.637 69.4496 141.283 66.4124 137.93C63.3752 134.576 60.4013 131.222 57.3641 127.995L63.3752 121.541L78.8776 106.608H79.89V105.596L79.9533 105.533ZM162.527 109.519C163.666 109.646 164.805 109.772 165.818 110.025V105.533H139.242V155.204H165.818V150.711C164.868 150.711 163.919 150.838 162.907 150.964C161.768 151.091 160.629 151.217 159.3 151.217C155.314 151.724 150.758 151.724 146.266 151.724V130.337H157.782C158.794 130.337 159.933 130.463 161.072 130.59C162.211 130.716 163.35 130.843 164.362 130.843V126.856C163.35 126.856 162.211 126.983 161.072 127.11C159.933 127.236 158.794 127.363 157.782 127.363H146.266V108.95H159.3C160.313 109.203 161.452 109.329 162.591 109.456L162.527 109.519ZM212.958 110.025C212.958 110.025 212.641 110.025 212.451 109.962V105.533H174.803V110.025C178.789 109.519 183.345 109.013 190.875 109.013V155.204H197.392V109.013C203.593 109.013 208.908 109.456 212.451 109.962L212.958 110.025ZM276.676 105.533H270.158V155.204H276.676V105.533ZM336.914 155.204H334.889C334.446 154.761 333.876 154.128 333.307 153.369C332.548 152.483 331.725 151.534 330.902 150.711L299.265 115.91H298.759V155.14H294.772V105.469H297.809L333.433 143.751V105.469H337.42V155.14H336.914V155.204ZM396.139 114.454H395.127C391.14 109.962 385.066 107.494 378.549 107.494C366.02 107.494 357.478 115.467 357.478 130.337C357.478 145.206 365.008 153.685 379.561 153.685C383.547 153.685 387.597 153.179 391.077 151.217V132.361H397.594V152.736C391.077 154.697 384.56 156.216 377.536 156.216C358.997 156.216 350.454 145.269 350.454 130.4C350.454 113.505 362.983 104.584 379.055 104.584C390.065 104.584 396.139 107.558 397.594 108.57L396.076 114.518L396.139 114.454ZM119.121 155.204L127.157 154.697L125.638 153.685L122.095 149.699L107.035 130.843C114.565 129.324 122.095 125.401 122.095 116.922C122.095 109.456 117.602 105.976 106.023 105.976H90.457V155.647H96.9743V108.443C98.1132 108.443 99.442 108.443 100.771 108.317C103.492 108.19 106.339 108.064 107.984 108.443C113.489 108.95 116.02 112.43 116.02 117.365C116.02 122.807 112.034 126.793 106.466 127.806C104.441 128.312 101.973 128.312 99.9482 128.312V130.779L105.959 137.74L114.502 148.686C116.02 150.648 117.539 152.673 118.994 155.14L119.121 155.204ZM257.63 109.962C257.63 109.962 257.313 109.962 257.124 109.899V105.469H219.475V109.962C223.461 109.456 228.017 108.95 235.547 108.95V155.14H242.064V108.95C248.265 108.95 253.58 109.392 257.124 109.899L257.63 109.962ZM8.70551 176.084C4.21298 176.084 1.68198 179.565 1.68198 183.551C1.68198 188.043 4.21298 191.524 8.19931 191.017C11.7427 191.017 13.198 188.55 13.198 188.55V190.511H16.2353V176.084H13.198V178.046C12.6918 177.034 10.667 176.084 8.70551 176.084ZM5.16211 184.057C5.16211 181.589 6.68071 179.058 9.14844 179.058C11.6162 179.058 13.1348 181.02 13.1348 184.057C13.1348 186.525 12.1224 189.056 9.14844 189.056C6.61743 189.056 5.16211 187.094 5.16211 184.057ZM31.7377 178.109V191.017H28.1942V172.604H31.7377L41.2922 186.019V172.604H44.8356V191.017H41.2922L31.7377 178.109ZM60.8442 176.591H57.3008V185.006C57.3008 187.98 56.2884 188.486 54.2636 188.486C52.2388 188.486 51.2264 187.98 51.2264 185.006V176.591H48.1892V186.019C48.1892 189.499 50.7202 191.46 54.7065 191.46C58.2499 191.46 60.7177 188.993 60.7177 186.019V176.591H60.8442ZM64.8305 191.017V179.565H63.3119V176.591H64.8305V172.604H68.3739V176.591H70.905V179.565H68.3739V191.017H64.8305ZM75.8404 183.045C75.8404 181.083 76.8528 179.058 78.8776 179.058C79.3838 179.058 80.3962 179.565 80.3962 179.565L81.4086 176.591C80.3962 176.084 79.89 176.084 79.3838 176.084C76.3466 176.084 75.3975 178.552 75.3975 178.552V176.591H72.8665V191.017H75.9037V183.045H75.8404ZM81.8515 184.057C81.8515 179.565 85.395 176.084 89.3813 176.084C94.38 176.084 96.4048 179.565 96.4048 184.5H85.395C85.395 186.462 86.9136 188.486 89.3813 188.486C91.4061 188.486 92.9247 187.474 93.3676 186.019L96.4048 187.537C95.3924 189.499 92.8614 191.524 89.3813 191.524C85.395 191.524 81.8515 188.55 81.8515 184.057ZM85.395 182.096H93.4309C93.4309 181.589 92.9247 179.122 89.4446 179.122C86.9136 179.122 85.4582 181.083 85.4582 182.096H85.395ZM106.972 176.148C101.973 176.148 98.9358 180.134 98.9358 184.12C98.9358 188.613 102.479 191.587 106.972 191.081C109.503 191.081 110.958 190.068 110.958 190.068V186.588C110.958 186.588 110.578 186.778 110.325 186.904C109.376 187.411 108.174 188.107 106.908 188.107C103.871 188.107 102.416 186.145 102.416 183.614C102.416 180.64 103.935 178.615 106.908 178.615C108.933 178.615 110.895 180.134 110.895 180.134V177.16C109.882 176.654 108.364 176.148 106.908 176.148H106.972ZM120.513 176.148C125.005 176.148 128.042 179.628 128.042 183.614C128.042 187.601 125.005 191.081 120.513 191.081C116.02 191.081 112.477 188.107 112.477 183.614C112.983 179.628 116.463 176.148 120.513 176.148ZM116.526 183.614C116.526 186.082 118.045 188.107 121.019 188.107C123.993 188.107 125.511 186.145 125.511 183.614C125.511 181.083 123.993 179.122 121.019 179.122C118.045 179.122 116.526 181.083 116.526 183.614ZM146.645 176.148C141.647 176.148 138.609 180.134 138.609 184.12C138.609 188.613 142.153 191.587 146.645 191.081C149.176 191.081 150.632 190.068 150.632 190.068V186.588C150.632 186.588 150.252 186.778 149.999 186.904C149.05 187.411 147.847 188.107 146.582 188.107C143.545 188.107 142.089 186.145 142.089 183.614C142.089 180.64 143.608 178.615 146.582 178.615C148.607 178.615 150.568 180.134 150.568 180.134V177.16C149.556 176.654 148.037 176.148 146.582 176.148H146.645ZM160.692 176.148C165.185 176.148 168.222 179.628 168.222 183.614C168.222 187.601 165.185 191.081 160.692 191.081C156.2 191.081 152.656 188.107 152.656 183.614C152.656 179.628 156.2 176.148 160.692 176.148ZM156.2 183.614C156.2 186.082 157.718 188.107 160.692 188.107C163.666 188.107 165.185 186.145 165.185 183.614C165.185 181.083 163.666 179.122 160.692 179.122C158.161 179.122 156.2 181.083 156.2 183.614ZM171.765 191.081H175.309V182.159C175.309 180.64 176.827 179.185 178.346 179.185C179.865 179.185 180.371 179.691 180.371 181.653V191.587H183.408V182.159C183.408 180.64 184.421 179.185 186.445 179.185C187.458 179.185 188.47 179.691 188.47 181.653V191.081H191.507V180.134C191.507 177.666 189.483 176.148 187.015 176.148C183.978 176.148 183.028 178.109 183.028 178.109C183.028 178.109 182.902 177.983 182.839 177.856C182.269 177.223 181.257 176.084 179.042 176.084C176.005 176.084 175.056 178.046 175.056 178.046V176.527H172.019V190.954L171.765 191.081ZM194.861 176.654H197.898V178.615C198.911 177.097 200.429 176.148 202.391 176.148C206.883 176.148 209.414 179.628 209.414 184.12C209.414 188.107 206.883 191.587 202.391 191.587C198.847 191.587 197.898 189.625 197.898 189.625V197.598H194.355V176.717H194.861V176.654ZM206.377 184.12C206.377 181.653 205.365 179.122 202.391 179.122C199.86 179.122 198.404 181.083 198.404 183.614C198.404 186.145 199.923 188.107 202.391 188.107C204.415 188.107 206.377 186.588 206.377 184.12ZM218.399 176.148C213.907 176.148 211.376 179.628 211.376 183.614C211.376 188.107 214.413 191.587 217.893 191.081C221.436 191.081 222.892 188.613 222.892 188.613V190.574H225.929V176.148H222.892V178.109C222.386 177.097 220.361 176.148 218.399 176.148ZM214.856 184.12C214.856 181.653 216.374 179.122 218.842 179.122C221.31 179.122 222.828 181.083 222.828 184.12C222.828 186.588 221.816 189.119 218.842 189.119C216.311 189.119 214.856 187.158 214.856 184.12ZM233.395 191.081H230.358V176.654H233.395V178.615C233.395 178.615 234.408 176.148 237.888 176.148C240.925 176.148 242.887 178.109 242.887 181.146V191.081H239.849V182.602C239.849 180.134 238.837 179.122 236.812 179.122C234.281 179.122 233.269 181.589 233.269 183.108V191.081H233.395ZM248.455 176.654H244.912L251.429 189.056L247.885 197.029H251.429L260.477 176.654H256.934L252.947 185.576L248.455 176.654Z" fill="#84888B"/>
<path d="M590.773 66.5664V226.399" stroke="#84888B" stroke-width="2"/>
<path d="M795.026 95.582H844.317V109.503H806.605L801.67 133.737L801.923 133.99C804.011 131.649 806.669 129.877 809.832 128.675C813.123 127.409 816.35 126.777 819.513 126.777C824.259 126.777 828.435 127.599 832.169 129.244C835.902 130.763 839.002 133.041 841.596 135.888C844.127 138.672 846.026 142.089 847.291 145.949C848.62 149.872 849.316 154.048 849.316 158.604C849.316 162.401 848.683 166.387 847.418 170.436C846.216 174.423 844.254 178.093 841.533 181.446C838.876 184.737 835.459 187.457 831.346 189.609C827.17 191.697 822.171 192.773 816.35 192.773C811.731 192.773 807.428 192.14 803.378 190.874C799.455 189.672 796.038 187.9 793.001 185.433C790.027 182.965 787.623 179.991 785.788 176.448C784.079 172.841 783.13 168.602 782.94 163.793H798.443C798.886 168.981 800.657 172.967 803.758 175.752C806.858 178.472 810.908 179.864 816.033 179.864C819.324 179.864 822.108 179.295 824.322 178.219C826.6 177.144 828.435 175.625 829.764 173.727C831.219 171.829 832.232 169.614 832.738 167.083C833.371 164.552 833.687 161.831 833.687 158.92C833.687 156.263 833.307 153.795 832.611 151.454C831.852 148.986 830.776 146.898 829.321 145.063C827.866 143.228 825.968 141.773 823.626 140.697C821.348 139.622 818.691 139.052 815.59 139.052C812.3 139.052 809.263 139.685 806.352 140.95C803.568 142.153 801.48 144.43 800.215 147.784H784.712L794.899 95.582H795.026Z" fill="#84888B"/>
<path d="M775.727 190.944H710.617C710.68 183.035 712.642 176.138 716.311 170.254C720.045 164.369 725.107 159.244 731.561 154.878C734.661 152.6 737.888 150.448 741.242 148.36C744.595 146.209 747.696 143.868 750.48 141.4C753.264 138.932 755.605 136.338 757.44 133.491C759.275 130.58 760.224 127.29 760.288 123.556C760.288 121.848 760.035 120.013 759.592 118.115C759.212 116.09 758.453 114.318 757.25 112.673C756.048 110.965 754.466 109.509 752.378 108.434C750.29 107.232 747.569 106.662 744.216 106.662C741.115 106.662 738.521 107.295 736.433 108.56C734.408 109.763 732.826 111.408 731.561 113.622C730.359 115.71 729.473 118.178 728.84 121.089C728.27 123.999 727.954 127.1 727.891 130.517H712.388C712.388 125.265 713.084 120.393 714.413 115.963C715.869 111.408 718.02 107.548 720.804 104.258C723.588 100.967 727.005 98.4363 730.991 96.6013C735.104 94.703 739.787 93.7539 745.165 93.7539C750.986 93.7539 755.858 94.703 759.718 96.6013C763.641 98.4995 766.742 100.904 769.146 103.815C771.614 106.725 773.322 109.889 774.335 113.369C775.347 116.723 775.853 119.95 775.853 123.05C775.853 126.847 775.284 130.327 774.082 133.427C772.879 136.528 771.298 139.375 769.336 142.033C767.311 144.564 765.033 146.968 762.502 149.12C759.971 151.271 757.314 153.359 754.593 155.257C751.872 157.156 749.151 158.991 746.43 160.699C743.71 162.407 741.179 164.179 738.774 165.888C736.496 167.596 734.535 169.431 732.763 171.329C731.055 173.164 729.852 175.126 729.22 177.214H775.664V191.134L775.727 190.944Z" fill="#84888B"/>
<path d="M656.833 111.401C660.123 111.401 663.287 111.148 666.388 110.578C669.488 110.009 672.272 109.123 674.677 107.857C677.208 106.592 679.359 104.947 681.067 102.922C682.902 100.897 684.041 98.4927 684.611 95.582H697.266V190.938H680.245V123.613H656.833V111.338V111.401Z" fill="#84888B"/>
<path d="M863.426 95.582H870.639L878.422 117.855H878.549L886.142 95.582H893.039L881.459 127.093C880.89 128.422 880.384 129.751 879.877 130.953C879.371 132.218 878.738 133.294 877.979 134.243C877.22 135.192 876.271 135.952 875.195 136.521C874.056 137.09 872.664 137.344 870.892 137.344C869.374 137.344 867.855 137.217 866.336 136.964V131.396C866.843 131.459 867.412 131.586 867.918 131.649C868.425 131.712 868.931 131.775 869.5 131.775C870.26 131.775 870.892 131.712 871.399 131.522C871.905 131.332 872.284 131.016 872.664 130.7C872.98 130.32 873.297 129.877 873.487 129.371C873.676 128.865 873.929 128.295 874.119 127.663L874.879 125.385L863.552 95.6453L863.426 95.582Z" fill="#84888B"/>
<path d="M899.176 112.239C899.176 113.378 899.366 114.517 899.682 115.593C899.999 116.668 900.505 117.617 901.138 118.44C901.77 119.262 902.593 119.895 903.605 120.338C904.618 120.844 905.82 121.097 907.212 121.097C909.11 121.097 910.692 120.655 911.894 119.832C913.097 119.009 913.919 117.744 914.552 116.099H920.816C920.5 117.744 919.867 119.136 919.044 120.401C918.222 121.667 917.209 122.743 916.007 123.628C914.805 124.514 913.476 125.147 912.021 125.59C910.566 126.033 908.984 126.286 907.338 126.286C904.997 126.286 902.909 125.906 901.074 125.147C899.239 124.388 897.721 123.312 896.455 121.92C895.19 120.528 894.241 118.883 893.608 116.985C892.975 115.086 892.659 112.935 892.659 110.657C892.659 108.569 892.975 106.544 893.671 104.646C894.367 102.748 895.316 101.039 896.582 99.6472C897.847 98.1919 899.366 97.0529 901.138 96.2304C902.909 95.4078 904.934 94.9648 907.149 94.9648C909.49 94.9648 911.641 95.471 913.476 96.4202C915.311 97.3693 916.893 98.6981 918.159 100.343C919.361 101.988 920.31 103.823 920.816 105.911C921.386 108 921.512 110.151 921.259 112.429H899.303L899.176 112.239ZM914.552 107.936C914.489 106.924 914.235 105.911 913.856 104.962C913.476 104.013 912.97 103.191 912.337 102.431C911.705 101.735 910.945 101.166 909.996 100.723C909.11 100.28 908.098 100.09 906.959 100.09C905.82 100.09 904.744 100.28 903.795 100.723C902.846 101.103 902.023 101.672 901.391 102.368C900.758 103.064 900.188 103.95 899.809 104.899C899.429 105.848 899.176 106.924 899.113 108H914.489L914.552 107.936Z" fill="#84888B"/>
<path d="M950.049 118.816C950.049 119.638 950.176 120.208 950.366 120.524C950.555 120.84 950.998 121.03 951.631 121.03H952.327C952.327 121.03 952.897 121.03 953.276 120.904V125.46C953.276 125.46 952.77 125.649 952.39 125.713C952.011 125.839 951.631 125.902 951.251 125.966C950.872 126.029 950.492 126.092 950.112 126.156C949.733 126.156 949.416 126.156 949.1 126.156C947.771 126.156 946.632 125.902 945.746 125.333C944.861 124.827 944.291 123.878 944.038 122.486C942.709 123.751 941.127 124.7 939.229 125.27C937.331 125.839 935.496 126.156 933.724 126.156C932.395 126.156 931.067 125.966 929.864 125.586C928.599 125.206 927.523 124.7 926.574 123.941C925.625 123.245 924.866 122.296 924.296 121.22C923.727 120.144 923.474 118.816 923.474 117.36C923.474 115.525 923.79 114.007 924.486 112.868C925.182 111.729 926.068 110.78 927.144 110.147C928.219 109.514 929.485 109.008 930.814 108.755C932.206 108.439 933.534 108.249 934.926 108.122C936.129 107.869 937.268 107.742 938.343 107.616C939.419 107.489 940.368 107.363 941.191 107.11C942.013 106.857 942.646 106.54 943.152 106.034C943.658 105.528 943.848 104.832 943.848 103.883C943.848 103.06 943.658 102.364 943.215 101.795C942.836 101.288 942.33 100.845 941.697 100.529C941.127 100.213 940.431 100.023 939.735 99.9596C938.976 99.8331 938.28 99.8331 937.647 99.8331C935.812 99.8331 934.294 100.213 933.091 100.972C931.889 101.731 931.193 102.934 931.067 104.579H924.486C924.613 102.68 925.056 101.035 925.878 99.7698C926.701 98.5043 927.713 97.4919 928.979 96.7326C930.244 95.9733 931.636 95.4038 933.218 95.0875C934.8 94.7711 936.445 94.6445 938.09 94.6445C939.545 94.6445 941.001 94.7711 942.393 95.0875C943.785 95.4038 945.114 95.91 946.253 96.6061C947.392 97.3021 948.277 98.1879 948.973 99.2636C949.67 100.339 949.986 101.668 949.986 103.25V118.626L950.049 118.816ZM943.469 110.527C942.456 111.159 941.254 111.602 939.799 111.729C938.343 111.855 936.888 112.045 935.433 112.362C934.737 112.488 934.041 112.615 933.408 112.868C932.775 113.058 932.206 113.374 931.699 113.754C931.193 114.133 930.814 114.576 930.497 115.209C930.181 115.842 930.054 116.538 930.054 117.36C930.054 118.12 930.244 118.689 930.687 119.195C931.13 119.701 931.636 120.081 932.206 120.398C932.775 120.651 933.471 120.904 934.167 121.03C934.863 121.157 935.496 121.22 936.129 121.22C936.888 121.22 937.647 121.094 938.47 120.904C939.292 120.714 940.115 120.398 940.874 119.955C941.634 119.512 942.266 118.879 942.773 118.183C943.279 117.487 943.532 116.601 943.532 115.525V110.59L943.469 110.527Z" fill="#84888B"/>
<path d="M955.997 95.6031H962.198V101.361H962.325C962.514 100.539 962.894 99.7792 963.464 99.0199C964.033 98.2606 964.729 97.5646 965.488 96.9318C966.248 96.2991 967.133 95.7929 968.146 95.4132C969.095 95.0336 970.107 94.8438 971.12 94.8438C971.879 94.8438 972.449 94.8438 972.702 94.8438C972.955 94.8438 973.271 94.907 973.588 94.9703V101.298C973.145 101.235 972.638 101.171 972.195 101.108C971.689 101.108 971.246 101.045 970.803 101.045C969.664 101.045 968.652 101.298 967.64 101.677C966.627 102.057 965.805 102.753 965.045 103.639C964.286 104.525 963.717 105.601 963.337 106.866C962.894 108.132 962.704 109.587 962.704 111.232V125.469H956.124V95.6031H955.997Z" fill="#84888B"/>
<path d="M980.042 115.84C980.232 117.738 980.991 119.13 982.257 119.89C983.522 120.649 985.041 121.029 986.812 121.029C987.445 121.029 988.141 121.029 988.9 120.902C989.66 120.776 990.419 120.649 991.115 120.333C991.811 120.08 992.381 119.637 992.824 119.13C993.267 118.624 993.456 117.928 993.456 117.106C993.456 116.283 993.14 115.587 992.507 115.018C991.938 114.511 991.178 114.068 990.293 113.689C989.407 113.372 988.331 113.056 987.192 112.866C986.053 112.613 984.851 112.36 983.649 112.107C982.383 111.854 981.244 111.537 980.105 111.158C978.966 110.778 977.954 110.272 977.068 109.576C976.182 108.943 975.423 108.057 974.917 107.045C974.411 106.032 974.094 104.767 974.094 103.248C974.094 101.603 974.474 100.274 975.296 99.1988C976.056 98.1231 977.068 97.2373 978.27 96.5412C979.473 95.8452 980.801 95.4023 982.32 95.1492C983.775 94.8961 985.231 94.7695 986.559 94.7695C988.078 94.7695 989.597 94.9594 990.989 95.2757C992.381 95.5921 993.646 96.1616 994.785 96.8576C995.924 97.6169 996.873 98.566 997.632 99.705C998.392 100.907 998.835 102.299 999.025 103.944H992.128C991.811 102.363 991.115 101.287 989.976 100.781C988.837 100.274 987.508 99.9581 986.053 99.9581C985.61 99.9581 985.041 99.9581 984.408 100.085C983.775 100.211 983.206 100.338 982.636 100.528C982.067 100.717 981.624 101.034 981.244 101.477C980.865 101.856 980.675 102.426 980.675 103.059C980.675 103.881 980.928 104.514 981.497 105.02C982.067 105.526 982.763 105.906 983.712 106.286C984.598 106.602 985.673 106.918 986.812 107.108C987.951 107.298 989.154 107.614 990.419 107.867C991.621 108.121 992.824 108.437 993.963 108.88C995.101 109.26 996.114 109.766 997.063 110.462C997.949 111.095 998.708 111.917 999.278 112.929C999.847 113.942 1000.1 115.144 1000.1 116.599C1000.1 118.371 999.721 119.89 998.898 121.092C998.075 122.294 997.063 123.307 995.734 124.066C994.469 124.825 993.013 125.395 991.432 125.711C989.85 126.027 988.268 126.217 986.749 126.217C984.851 126.217 983.142 126.027 981.497 125.585C979.915 125.142 978.523 124.509 977.321 123.623C976.119 122.737 975.233 121.661 974.537 120.396C973.841 119.13 973.525 117.549 973.461 115.777H980.042V115.84Z" fill="#84888B"/>
</svg>
